%TF.GenerationSoftware,KiCad,Pcbnew,5.1.9-73d0e3b20d~88~ubuntu20.04.1*%
%TF.CreationDate,2021-10-10T01:19:02+05:30*%
%TF.ProjectId,ESP-Switch,4553502d-5377-4697-9463-682e6b696361,rev?*%
%TF.SameCoordinates,Original*%
%TF.FileFunction,Soldermask,Top*%
%TF.FilePolarity,Negative*%
%FSLAX46Y46*%
G04 Gerber Fmt 4.6, Leading zero omitted, Abs format (unit mm)*
G04 Created by KiCad (PCBNEW 5.1.9-73d0e3b20d~88~ubuntu20.04.1) date 2021-10-10 01:19:02*
%MOMM*%
%LPD*%
G01*
G04 APERTURE LIST*
%ADD10C,2.600000*%
%ADD11C,3.500000*%
%ADD12C,3.000000*%
%ADD13R,1.727200X1.727200*%
%ADD14O,1.727200X1.727200*%
%ADD15R,1.980000X3.960000*%
%ADD16O,1.980000X3.960000*%
%ADD17C,2.300000*%
%ADD18R,2.000000X2.300000*%
%ADD19O,1.600000X1.600000*%
%ADD20R,1.600000X1.600000*%
G04 APERTURE END LIST*
D10*
%TO.C,H1*%
X107100000Y-79110000D03*
D11*
X107100000Y-79110000D03*
%TD*%
D12*
%TO.C,K2*%
X76050000Y-59180000D03*
X76050000Y-46980000D03*
X64050000Y-46980000D03*
X64050000Y-59180000D03*
X70050000Y-61180000D03*
%TD*%
%TO.C,K1*%
X51950000Y-61180000D03*
X45950000Y-59180000D03*
X45950000Y-46980000D03*
X57950000Y-46980000D03*
X57950000Y-59180000D03*
%TD*%
D13*
%TO.C,ESP-01*%
X126280000Y-56570000D03*
D14*
X126280000Y-59110000D03*
X123740000Y-56570000D03*
X123740000Y-59110000D03*
X121200000Y-56570000D03*
X121200000Y-59110000D03*
X118660000Y-56570000D03*
X118660000Y-59110000D03*
%TD*%
D15*
%TO.C,Switch-C1*%
X83400000Y-36210000D03*
D16*
X88400000Y-36210000D03*
X93400000Y-36210000D03*
%TD*%
%TO.C,Switch-A1*%
X57005000Y-36210000D03*
X52005000Y-36210000D03*
D15*
X47005000Y-36210000D03*
%TD*%
D10*
%TO.C,H4*%
X42420000Y-78900000D03*
D11*
X42420000Y-78900000D03*
%TD*%
D10*
%TO.C,H3*%
X41340000Y-27200000D03*
D11*
X41340000Y-27200000D03*
%TD*%
%TO.C,H1*%
X154340000Y-27760000D03*
D10*
X154340000Y-27760000D03*
%TD*%
D12*
%TO.C,K3*%
X94150000Y-59180000D03*
X94150000Y-46980000D03*
X82150000Y-46980000D03*
X82150000Y-59180000D03*
X88150000Y-61180000D03*
%TD*%
%TO.C,K4*%
X106250000Y-61180000D03*
X100250000Y-59180000D03*
X100250000Y-46980000D03*
X112250000Y-46980000D03*
X112250000Y-59180000D03*
%TD*%
D17*
%TO.C,Power Supply*%
X150320000Y-76830000D03*
D18*
X145120000Y-47430000D03*
D17*
X140120000Y-47430000D03*
X134920000Y-76830000D03*
%TD*%
D19*
%TO.C,OP1*%
X58720000Y-68820000D03*
X51100000Y-71360000D03*
X58720000Y-71360000D03*
D20*
X51100000Y-68820000D03*
%TD*%
D19*
%TO.C,OP2*%
X76820000Y-68820000D03*
X69200000Y-71360000D03*
X76820000Y-71360000D03*
D20*
X69200000Y-68820000D03*
%TD*%
%TO.C,OP3*%
X87300000Y-68820000D03*
D19*
X94920000Y-71360000D03*
X87300000Y-71360000D03*
X94920000Y-68820000D03*
%TD*%
D20*
%TO.C,OP4*%
X105400000Y-68820000D03*
D19*
X113020000Y-71360000D03*
X105400000Y-71360000D03*
X113020000Y-68820000D03*
%TD*%
D15*
%TO.C,Mains*%
X139110000Y-36200000D03*
D16*
X144110000Y-36200000D03*
%TD*%
%TO.C,Switch-B1*%
X75100000Y-36210000D03*
X70100000Y-36210000D03*
D15*
X65100000Y-36210000D03*
%TD*%
%TO.C,Switch-D1*%
X101300000Y-36210000D03*
D16*
X106300000Y-36210000D03*
X111300000Y-36210000D03*
%TD*%
%TO.C,A*%
G36*
G01*
X120126250Y-29545000D02*
X121038750Y-29545000D01*
G75*
G02*
X121282500Y-29788750I0J-243750D01*
G01*
X121282500Y-30276250D01*
G75*
G02*
X121038750Y-30520000I-243750J0D01*
G01*
X120126250Y-30520000D01*
G75*
G02*
X119882500Y-30276250I0J243750D01*
G01*
X119882500Y-29788750D01*
G75*
G02*
X120126250Y-29545000I243750J0D01*
G01*
G37*
G36*
G01*
X120126250Y-31420000D02*
X121038750Y-31420000D01*
G75*
G02*
X121282500Y-31663750I0J-243750D01*
G01*
X121282500Y-32151250D01*
G75*
G02*
X121038750Y-32395000I-243750J0D01*
G01*
X120126250Y-32395000D01*
G75*
G02*
X119882500Y-32151250I0J243750D01*
G01*
X119882500Y-31663750D01*
G75*
G02*
X120126250Y-31420000I243750J0D01*
G01*
G37*
%TD*%
%TO.C,B*%
G36*
G01*
X123038750Y-31420000D02*
X123951250Y-31420000D01*
G75*
G02*
X124195000Y-31663750I0J-243750D01*
G01*
X124195000Y-32151250D01*
G75*
G02*
X123951250Y-32395000I-243750J0D01*
G01*
X123038750Y-32395000D01*
G75*
G02*
X122795000Y-32151250I0J243750D01*
G01*
X122795000Y-31663750D01*
G75*
G02*
X123038750Y-31420000I243750J0D01*
G01*
G37*
G36*
G01*
X123038750Y-29545000D02*
X123951250Y-29545000D01*
G75*
G02*
X124195000Y-29788750I0J-243750D01*
G01*
X124195000Y-30276250D01*
G75*
G02*
X123951250Y-30520000I-243750J0D01*
G01*
X123038750Y-30520000D01*
G75*
G02*
X122795000Y-30276250I0J243750D01*
G01*
X122795000Y-29788750D01*
G75*
G02*
X123038750Y-29545000I243750J0D01*
G01*
G37*
%TD*%
%TO.C,C*%
G36*
G01*
X125951250Y-29545000D02*
X126863750Y-29545000D01*
G75*
G02*
X127107500Y-29788750I0J-243750D01*
G01*
X127107500Y-30276250D01*
G75*
G02*
X126863750Y-30520000I-243750J0D01*
G01*
X125951250Y-30520000D01*
G75*
G02*
X125707500Y-30276250I0J243750D01*
G01*
X125707500Y-29788750D01*
G75*
G02*
X125951250Y-29545000I243750J0D01*
G01*
G37*
G36*
G01*
X125951250Y-31420000D02*
X126863750Y-31420000D01*
G75*
G02*
X127107500Y-31663750I0J-243750D01*
G01*
X127107500Y-32151250D01*
G75*
G02*
X126863750Y-32395000I-243750J0D01*
G01*
X125951250Y-32395000D01*
G75*
G02*
X125707500Y-32151250I0J243750D01*
G01*
X125707500Y-31663750D01*
G75*
G02*
X125951250Y-31420000I243750J0D01*
G01*
G37*
%TD*%
%TO.C,D*%
G36*
G01*
X128863750Y-31420000D02*
X129776250Y-31420000D01*
G75*
G02*
X130020000Y-31663750I0J-243750D01*
G01*
X130020000Y-32151250D01*
G75*
G02*
X129776250Y-32395000I-243750J0D01*
G01*
X128863750Y-32395000D01*
G75*
G02*
X128620000Y-32151250I0J243750D01*
G01*
X128620000Y-31663750D01*
G75*
G02*
X128863750Y-31420000I243750J0D01*
G01*
G37*
G36*
G01*
X128863750Y-29545000D02*
X129776250Y-29545000D01*
G75*
G02*
X130020000Y-29788750I0J-243750D01*
G01*
X130020000Y-30276250D01*
G75*
G02*
X129776250Y-30520000I-243750J0D01*
G01*
X128863750Y-30520000D01*
G75*
G02*
X128620000Y-30276250I0J243750D01*
G01*
X128620000Y-29788750D01*
G75*
G02*
X128863750Y-29545000I243750J0D01*
G01*
G37*
%TD*%
%TO.C,ON*%
G36*
G01*
X117213750Y-29545000D02*
X118126250Y-29545000D01*
G75*
G02*
X118370000Y-29788750I0J-243750D01*
G01*
X118370000Y-30276250D01*
G75*
G02*
X118126250Y-30520000I-243750J0D01*
G01*
X117213750Y-30520000D01*
G75*
G02*
X116970000Y-30276250I0J243750D01*
G01*
X116970000Y-29788750D01*
G75*
G02*
X117213750Y-29545000I243750J0D01*
G01*
G37*
G36*
G01*
X117213750Y-31420000D02*
X118126250Y-31420000D01*
G75*
G02*
X118370000Y-31663750I0J-243750D01*
G01*
X118370000Y-32151250D01*
G75*
G02*
X118126250Y-32395000I-243750J0D01*
G01*
X117213750Y-32395000D01*
G75*
G02*
X116970000Y-32151250I0J243750D01*
G01*
X116970000Y-31663750D01*
G75*
G02*
X117213750Y-31420000I243750J0D01*
G01*
G37*
%TD*%
%TO.C,PR_1*%
G36*
G01*
X118075001Y-36725000D02*
X117174999Y-36725000D01*
G75*
G02*
X116925000Y-36475001I0J249999D01*
G01*
X116925000Y-35949999D01*
G75*
G02*
X117174999Y-35700000I249999J0D01*
G01*
X118075001Y-35700000D01*
G75*
G02*
X118325000Y-35949999I0J-249999D01*
G01*
X118325000Y-36475001D01*
G75*
G02*
X118075001Y-36725000I-249999J0D01*
G01*
G37*
G36*
G01*
X118075001Y-34900000D02*
X117174999Y-34900000D01*
G75*
G02*
X116925000Y-34650001I0J249999D01*
G01*
X116925000Y-34124999D01*
G75*
G02*
X117174999Y-33875000I249999J0D01*
G01*
X118075001Y-33875000D01*
G75*
G02*
X118325000Y-34124999I0J-249999D01*
G01*
X118325000Y-34650001D01*
G75*
G02*
X118075001Y-34900000I-249999J0D01*
G01*
G37*
%TD*%
%TO.C,R_LED_1*%
G36*
G01*
X120987501Y-36735000D02*
X120087499Y-36735000D01*
G75*
G02*
X119837500Y-36485001I0J249999D01*
G01*
X119837500Y-35959999D01*
G75*
G02*
X120087499Y-35710000I249999J0D01*
G01*
X120987501Y-35710000D01*
G75*
G02*
X121237500Y-35959999I0J-249999D01*
G01*
X121237500Y-36485001D01*
G75*
G02*
X120987501Y-36735000I-249999J0D01*
G01*
G37*
G36*
G01*
X120987501Y-34910000D02*
X120087499Y-34910000D01*
G75*
G02*
X119837500Y-34660001I0J249999D01*
G01*
X119837500Y-34134999D01*
G75*
G02*
X120087499Y-33885000I249999J0D01*
G01*
X120987501Y-33885000D01*
G75*
G02*
X121237500Y-34134999I0J-249999D01*
G01*
X121237500Y-34660001D01*
G75*
G02*
X120987501Y-34910000I-249999J0D01*
G01*
G37*
%TD*%
%TO.C,R_LED_2*%
G36*
G01*
X123900001Y-34880000D02*
X122999999Y-34880000D01*
G75*
G02*
X122750000Y-34630001I0J249999D01*
G01*
X122750000Y-34104999D01*
G75*
G02*
X122999999Y-33855000I249999J0D01*
G01*
X123900001Y-33855000D01*
G75*
G02*
X124150000Y-34104999I0J-249999D01*
G01*
X124150000Y-34630001D01*
G75*
G02*
X123900001Y-34880000I-249999J0D01*
G01*
G37*
G36*
G01*
X123900001Y-36705000D02*
X122999999Y-36705000D01*
G75*
G02*
X122750000Y-36455001I0J249999D01*
G01*
X122750000Y-35929999D01*
G75*
G02*
X122999999Y-35680000I249999J0D01*
G01*
X123900001Y-35680000D01*
G75*
G02*
X124150000Y-35929999I0J-249999D01*
G01*
X124150000Y-36455001D01*
G75*
G02*
X123900001Y-36705000I-249999J0D01*
G01*
G37*
%TD*%
%TO.C,R_LED_3*%
G36*
G01*
X126812501Y-34880000D02*
X125912499Y-34880000D01*
G75*
G02*
X125662500Y-34630001I0J249999D01*
G01*
X125662500Y-34104999D01*
G75*
G02*
X125912499Y-33855000I249999J0D01*
G01*
X126812501Y-33855000D01*
G75*
G02*
X127062500Y-34104999I0J-249999D01*
G01*
X127062500Y-34630001D01*
G75*
G02*
X126812501Y-34880000I-249999J0D01*
G01*
G37*
G36*
G01*
X126812501Y-36705000D02*
X125912499Y-36705000D01*
G75*
G02*
X125662500Y-36455001I0J249999D01*
G01*
X125662500Y-35929999D01*
G75*
G02*
X125912499Y-35680000I249999J0D01*
G01*
X126812501Y-35680000D01*
G75*
G02*
X127062500Y-35929999I0J-249999D01*
G01*
X127062500Y-36455001D01*
G75*
G02*
X126812501Y-36705000I-249999J0D01*
G01*
G37*
%TD*%
%TO.C,R_LED_4*%
G36*
G01*
X129725001Y-36665000D02*
X128824999Y-36665000D01*
G75*
G02*
X128575000Y-36415001I0J249999D01*
G01*
X128575000Y-35889999D01*
G75*
G02*
X128824999Y-35640000I249999J0D01*
G01*
X129725001Y-35640000D01*
G75*
G02*
X129975000Y-35889999I0J-249999D01*
G01*
X129975000Y-36415001D01*
G75*
G02*
X129725001Y-36665000I-249999J0D01*
G01*
G37*
G36*
G01*
X129725001Y-34840000D02*
X128824999Y-34840000D01*
G75*
G02*
X128575000Y-34590001I0J249999D01*
G01*
X128575000Y-34064999D01*
G75*
G02*
X128824999Y-33815000I249999J0D01*
G01*
X129725001Y-33815000D01*
G75*
G02*
X129975000Y-34064999I0J-249999D01*
G01*
X129975000Y-34590001D01*
G75*
G02*
X129725001Y-34840000I-249999J0D01*
G01*
G37*
%TD*%
M02*
