%TF.GenerationSoftware,KiCad,Pcbnew,5.1.9-73d0e3b20d~88~ubuntu20.04.1*%
%TF.CreationDate,2021-10-10T01:19:02+05:30*%
%TF.ProjectId,ESP-Switch,4553502d-5377-4697-9463-682e6b696361,rev?*%
%TF.SameCoordinates,Original*%
%TF.FileFunction,Paste,Bot*%
%TF.FilePolarity,Positive*%
%FSLAX46Y46*%
G04 Gerber Fmt 4.6, Leading zero omitted, Abs format (unit mm)*
G04 Created by KiCad (PCBNEW 5.1.9-73d0e3b20d~88~ubuntu20.04.1) date 2021-10-10 01:19:02*
%MOMM*%
%LPD*%
G01*
G04 APERTURE LIST*
%ADD10R,2.000000X3.800000*%
%ADD11R,2.000000X1.500000*%
%ADD12R,3.500000X1.800000*%
%ADD13R,0.800000X0.900000*%
G04 APERTURE END LIST*
D10*
%TO.C,U1*%
X146630000Y-60080000D03*
D11*
X140330000Y-60080000D03*
X140330000Y-57780000D03*
X140330000Y-62380000D03*
%TD*%
D12*
%TO.C,D1*%
X57800000Y-53410000D03*
X52800000Y-53410000D03*
%TD*%
%TO.C,D2*%
X70900000Y-53410000D03*
X75900000Y-53410000D03*
%TD*%
%TO.C,D3*%
X88980000Y-53400000D03*
X93980000Y-53400000D03*
%TD*%
%TO.C,D4*%
X112110000Y-53380000D03*
X107110000Y-53380000D03*
%TD*%
D13*
%TO.C,Q1*%
X47450000Y-52360000D03*
X49350000Y-52360000D03*
X48400000Y-54360000D03*
%TD*%
%TO.C,Q2*%
X66505000Y-54360000D03*
X67455000Y-52360000D03*
X65555000Y-52360000D03*
%TD*%
%TO.C,Q3*%
X83640000Y-52350000D03*
X85540000Y-52350000D03*
X84590000Y-54350000D03*
%TD*%
%TO.C,Q4*%
X102710000Y-54330000D03*
X103660000Y-52330000D03*
X101760000Y-52330000D03*
%TD*%
%TO.C,ROP1*%
G36*
G01*
X44599999Y-70480000D02*
X45500001Y-70480000D01*
G75*
G02*
X45750000Y-70729999I0J-249999D01*
G01*
X45750000Y-71255001D01*
G75*
G02*
X45500001Y-71505000I-249999J0D01*
G01*
X44599999Y-71505000D01*
G75*
G02*
X44350000Y-71255001I0J249999D01*
G01*
X44350000Y-70729999D01*
G75*
G02*
X44599999Y-70480000I249999J0D01*
G01*
G37*
G36*
G01*
X44599999Y-68655000D02*
X45500001Y-68655000D01*
G75*
G02*
X45750000Y-68904999I0J-249999D01*
G01*
X45750000Y-69430001D01*
G75*
G02*
X45500001Y-69680000I-249999J0D01*
G01*
X44599999Y-69680000D01*
G75*
G02*
X44350000Y-69430001I0J249999D01*
G01*
X44350000Y-68904999D01*
G75*
G02*
X44599999Y-68655000I249999J0D01*
G01*
G37*
%TD*%
%TO.C,ROP2*%
G36*
G01*
X62699999Y-70480000D02*
X63600001Y-70480000D01*
G75*
G02*
X63850000Y-70729999I0J-249999D01*
G01*
X63850000Y-71255001D01*
G75*
G02*
X63600001Y-71505000I-249999J0D01*
G01*
X62699999Y-71505000D01*
G75*
G02*
X62450000Y-71255001I0J249999D01*
G01*
X62450000Y-70729999D01*
G75*
G02*
X62699999Y-70480000I249999J0D01*
G01*
G37*
G36*
G01*
X62699999Y-68655000D02*
X63600001Y-68655000D01*
G75*
G02*
X63850000Y-68904999I0J-249999D01*
G01*
X63850000Y-69430001D01*
G75*
G02*
X63600001Y-69680000I-249999J0D01*
G01*
X62699999Y-69680000D01*
G75*
G02*
X62450000Y-69430001I0J249999D01*
G01*
X62450000Y-68904999D01*
G75*
G02*
X62699999Y-68655000I249999J0D01*
G01*
G37*
%TD*%
%TO.C,ROP3*%
G36*
G01*
X80799999Y-70480000D02*
X81700001Y-70480000D01*
G75*
G02*
X81950000Y-70729999I0J-249999D01*
G01*
X81950000Y-71255001D01*
G75*
G02*
X81700001Y-71505000I-249999J0D01*
G01*
X80799999Y-71505000D01*
G75*
G02*
X80550000Y-71255001I0J249999D01*
G01*
X80550000Y-70729999D01*
G75*
G02*
X80799999Y-70480000I249999J0D01*
G01*
G37*
G36*
G01*
X80799999Y-68655000D02*
X81700001Y-68655000D01*
G75*
G02*
X81950000Y-68904999I0J-249999D01*
G01*
X81950000Y-69430001D01*
G75*
G02*
X81700001Y-69680000I-249999J0D01*
G01*
X80799999Y-69680000D01*
G75*
G02*
X80550000Y-69430001I0J249999D01*
G01*
X80550000Y-68904999D01*
G75*
G02*
X80799999Y-68655000I249999J0D01*
G01*
G37*
%TD*%
%TO.C,ROP4*%
G36*
G01*
X98899999Y-70480000D02*
X99800001Y-70480000D01*
G75*
G02*
X100050000Y-70729999I0J-249999D01*
G01*
X100050000Y-71255001D01*
G75*
G02*
X99800001Y-71505000I-249999J0D01*
G01*
X98899999Y-71505000D01*
G75*
G02*
X98650000Y-71255001I0J249999D01*
G01*
X98650000Y-70729999D01*
G75*
G02*
X98899999Y-70480000I249999J0D01*
G01*
G37*
G36*
G01*
X98899999Y-68655000D02*
X99800001Y-68655000D01*
G75*
G02*
X100050000Y-68904999I0J-249999D01*
G01*
X100050000Y-69430001D01*
G75*
G02*
X99800001Y-69680000I-249999J0D01*
G01*
X98899999Y-69680000D01*
G75*
G02*
X98650000Y-69430001I0J249999D01*
G01*
X98650000Y-68904999D01*
G75*
G02*
X98899999Y-68655000I249999J0D01*
G01*
G37*
%TD*%
%TO.C,RQ1*%
G36*
G01*
X44599999Y-51915000D02*
X45500001Y-51915000D01*
G75*
G02*
X45750000Y-52164999I0J-249999D01*
G01*
X45750000Y-52690001D01*
G75*
G02*
X45500001Y-52940000I-249999J0D01*
G01*
X44599999Y-52940000D01*
G75*
G02*
X44350000Y-52690001I0J249999D01*
G01*
X44350000Y-52164999D01*
G75*
G02*
X44599999Y-51915000I249999J0D01*
G01*
G37*
G36*
G01*
X44599999Y-53740000D02*
X45500001Y-53740000D01*
G75*
G02*
X45750000Y-53989999I0J-249999D01*
G01*
X45750000Y-54515001D01*
G75*
G02*
X45500001Y-54765000I-249999J0D01*
G01*
X44599999Y-54765000D01*
G75*
G02*
X44350000Y-54515001I0J249999D01*
G01*
X44350000Y-53989999D01*
G75*
G02*
X44599999Y-53740000I249999J0D01*
G01*
G37*
%TD*%
%TO.C,RQ2*%
G36*
G01*
X62709999Y-51915000D02*
X63610001Y-51915000D01*
G75*
G02*
X63860000Y-52164999I0J-249999D01*
G01*
X63860000Y-52690001D01*
G75*
G02*
X63610001Y-52940000I-249999J0D01*
G01*
X62709999Y-52940000D01*
G75*
G02*
X62460000Y-52690001I0J249999D01*
G01*
X62460000Y-52164999D01*
G75*
G02*
X62709999Y-51915000I249999J0D01*
G01*
G37*
G36*
G01*
X62709999Y-53740000D02*
X63610001Y-53740000D01*
G75*
G02*
X63860000Y-53989999I0J-249999D01*
G01*
X63860000Y-54515001D01*
G75*
G02*
X63610001Y-54765000I-249999J0D01*
G01*
X62709999Y-54765000D01*
G75*
G02*
X62460000Y-54515001I0J249999D01*
G01*
X62460000Y-53989999D01*
G75*
G02*
X62709999Y-53740000I249999J0D01*
G01*
G37*
%TD*%
%TO.C,RQ3*%
G36*
G01*
X80799999Y-51905000D02*
X81700001Y-51905000D01*
G75*
G02*
X81950000Y-52154999I0J-249999D01*
G01*
X81950000Y-52680001D01*
G75*
G02*
X81700001Y-52930000I-249999J0D01*
G01*
X80799999Y-52930000D01*
G75*
G02*
X80550000Y-52680001I0J249999D01*
G01*
X80550000Y-52154999D01*
G75*
G02*
X80799999Y-51905000I249999J0D01*
G01*
G37*
G36*
G01*
X80799999Y-53730000D02*
X81700001Y-53730000D01*
G75*
G02*
X81950000Y-53979999I0J-249999D01*
G01*
X81950000Y-54505001D01*
G75*
G02*
X81700001Y-54755000I-249999J0D01*
G01*
X80799999Y-54755000D01*
G75*
G02*
X80550000Y-54505001I0J249999D01*
G01*
X80550000Y-53979999D01*
G75*
G02*
X80799999Y-53730000I249999J0D01*
G01*
G37*
%TD*%
%TO.C,RQ4*%
G36*
G01*
X98909999Y-51885000D02*
X99810001Y-51885000D01*
G75*
G02*
X100060000Y-52134999I0J-249999D01*
G01*
X100060000Y-52660001D01*
G75*
G02*
X99810001Y-52910000I-249999J0D01*
G01*
X98909999Y-52910000D01*
G75*
G02*
X98660000Y-52660001I0J249999D01*
G01*
X98660000Y-52134999D01*
G75*
G02*
X98909999Y-51885000I249999J0D01*
G01*
G37*
G36*
G01*
X98909999Y-53710000D02*
X99810001Y-53710000D01*
G75*
G02*
X100060000Y-53959999I0J-249999D01*
G01*
X100060000Y-54485001D01*
G75*
G02*
X99810001Y-54735000I-249999J0D01*
G01*
X98909999Y-54735000D01*
G75*
G02*
X98660000Y-54485001I0J249999D01*
G01*
X98660000Y-53959999D01*
G75*
G02*
X98909999Y-53710000I249999J0D01*
G01*
G37*
%TD*%
M02*
