M48
; DRILL file {KiCad 5.1.9-73d0e3b20d~88~ubuntu20.04.1} date Mon Oct 11 20:21:12 2021
; FORMAT={-:-/ absolute / inch / decimal}
; #@! TF.CreationDate,2021-10-11T20:21:12+05:30
; #@! TF.GenerationSoftware,Kicad,Pcbnew,5.1.9-73d0e3b20d~88~ubuntu20.04.1
; #@! TF.FileFunction,Plated,1,2,PTH
FMAT,2
INCH
T1C0.0157
T2C0.0315
T3C0.0394
T4C0.0400
T5C0.0512
T6C0.0520
T7C0.0866
%
G90
G05
T1
X1.8038Y-2.1816
X2.3618Y-2.0008
X2.5012Y-2.2
X2.6331Y-2.0232
X3.2055Y-2.2043
X3.9404Y-2.1825
X4.7402Y-1.5685
X4.8594Y-1.5669
X4.9697Y-1.5677
X5.0504Y-1.5693
X5.3886Y-2.4165
T2
X2.0118Y-2.7094
X2.0118Y-2.8094
X2.3118Y-2.7094
X2.3118Y-2.8094
X2.7244Y-2.7094
X2.7244Y-2.8094
X3.0244Y-2.7094
X3.0244Y-2.8094
X3.437Y-2.7094
X3.437Y-2.8094
X3.737Y-2.7094
X3.737Y-2.8094
X4.1496Y-2.7094
X4.1496Y-2.8094
X4.4496Y-2.7094
X4.4496Y-2.8094
T3
X5.3118Y-3.0248
X5.5165Y-1.8673
X5.7134Y-1.8673
X5.9181Y-3.0248
T4
X4.6717Y-2.2272
X4.6717Y-2.3272
X4.7717Y-2.2272
X4.7717Y-2.3272
X4.8717Y-2.2272
X4.8717Y-2.3272
X4.9717Y-2.2272
X4.9717Y-2.3272
T5
X1.8091Y-1.8496
X1.8091Y-2.3299
X2.0453Y-2.4087
X2.2815Y-1.8496
X2.2815Y-2.3299
X2.5217Y-1.8496
X2.5217Y-2.3299
X2.7579Y-2.4087
X2.9941Y-1.8496
X2.9941Y-2.3299
X3.2343Y-1.8496
X3.2343Y-2.3299
X3.4705Y-2.4087
X3.7067Y-1.8496
X3.7067Y-2.3299
X3.9469Y-1.8496
X3.9469Y-2.3299
X4.1831Y-2.4087
X4.4193Y-1.8496
X4.4193Y-2.3299
T6
X1.8506Y-1.4256
X2.0474Y-1.4256
X2.2443Y-1.4256
X2.563Y-1.4256
X2.7598Y-1.4256
X2.9567Y-1.4256
X3.2835Y-1.4256
X3.4803Y-1.4256
X3.6772Y-1.4256
X3.9882Y-1.4256
X4.185Y-1.4256
X4.3819Y-1.4256
X5.4768Y-1.4252
X5.6736Y-1.4252
T7
X1.6276Y-1.0709
X1.6701Y-3.1063
X4.2165Y-3.1146
X6.0764Y-1.0929
T0
M30
